<svg width="254" height="48" viewBox="0 0 254 48" fill="none" xmlns="http://www.w3.org/2000/svg">
<g clip-path="url(#clip0_122_111)">
<path fill-rule="evenodd" clip-rule="evenodd" d="M32.3322 1.03125L21.6379 5.60278V43.499H24.8938V35.5328L24.1403 35.6046C23.8321 35.6336 23.5586 35.4074 23.5295 35.0992C23.5005 34.7909 23.7267 34.5174 24.0349 34.4883L29.8298 33.9368C30.1381 33.9076 30.4115 34.1339 30.4407 34.4422C30.4698 34.7504 30.2435 35.0239 29.9353 35.0529L29.0764 35.1347V43.4989H43.0265V5.60278L32.3322 1.03125ZM25.8332 30.4268L23.8117 30.6203V26.7144L25.8332 26.4027V30.4268ZM25.8338 24.0822L23.8118 24.4621V20.5469L25.8338 20.0485V24.0822ZM25.8338 17.7345L23.8118 18.3008V14.3857L25.8338 13.7008V17.7345ZM25.8338 11.3835L23.8118 12.1333V8.47566L25.8345 7.60866L25.8338 11.3835ZM30.1584 30.0147L27.8806 30.2331V26.0826L30.1584 25.7307V30.0147ZM30.1584 23.2643L27.8806 23.6931V19.5458L30.1584 18.9837V23.2642V23.2643ZM30.1584 16.5173L27.8806 17.1562V13.0057L30.1584 12.2333V16.5173ZM30.1584 9.77034L27.8806 10.6194L27.8799 6.73228L30.1583 5.75475V9.77034H30.1584ZM35.5683 36.8438C35.5683 37.1545 35.3165 37.4063 35.0058 37.4063C34.6952 37.4063 34.4433 37.1545 34.4433 36.8438V5.94441C34.4433 5.63372 34.6952 5.38191 35.0058 5.38191C35.3165 5.38191 35.5683 5.63372 35.5683 5.94441V36.844V36.8438ZM38.2419 36.8438C38.2419 37.1545 37.9901 37.4063 37.6794 37.4063C37.3687 37.4063 37.1169 37.1545 37.1169 36.8438V7.08731C37.1169 6.77663 37.3688 6.52481 37.6794 6.52481C37.99 6.52481 38.2419 6.77672 38.2419 7.08731V36.844V36.8438ZM40.9155 36.8438C40.9155 37.1545 40.6637 37.4063 40.353 37.4063C40.0423 37.4063 39.7905 37.1545 39.7905 36.8438V8.23022C39.7905 7.91953 40.0423 7.66772 40.353 7.66772C40.6637 7.66772 40.9155 7.91953 40.9155 8.23022V36.844V36.8438ZM16.1099 12.0718L4.97369 16.8323V43.499H8.4505V37.3141L7.69703 37.3858C7.38878 37.4149 7.11531 37.1887 7.08625 36.8804C7.05719 36.5722 7.28341 36.2987 7.59166 36.2696L13.3865 35.7181C13.6948 35.689 13.9683 35.9152 13.9974 36.2235C14.0265 36.5317 13.8003 36.8052 13.492 36.8344L12.6332 36.9161V43.4991H20.513V13.954L16.1099 12.0718ZM8.99828 31.5599L7.35306 31.7852V28.6183L8.99828 28.2803V31.5599ZM8.99828 26.3979L7.35306 26.8026V23.6356L8.99828 23.1184V26.3979ZM8.99885 21.234L7.35316 21.8159V18.8581L8.99941 18.1647L8.99885 21.234ZM12.5759 31.0659L10.6811 31.327V27.9354L12.5759 27.5444V31.0659ZM12.5759 25.5145L10.6811 25.9813V22.5877L12.5759 21.9889V25.5145ZM12.5759 19.9611L10.6805 20.6357V17.4576L12.5759 16.6544V19.9611ZM1.08325 44.624H46.9169V46.9688H1.08325V44.624Z" fill="#FFEA2E"/>
<path d="M73.36 3.0402C78.544 3.0402 80.92 6.8322 80.92 10.9842C80.92 15.1362 78.544 19.0002 73.36 19.0002H65.296V3.0402H73.36ZM69.52 15.6642H72.4C75.304 15.6642 76.504 14.0562 76.504 10.9842C76.504 7.8642 75.28 6.3762 72.4 6.3762H69.52V15.6642Z" fill="#FFEA2E"/>
<path d="M89.1169 19.3842C84.0289 19.3842 82.2529 16.2402 82.2529 13.0002C82.2529 9.7842 84.0289 6.6162 89.1169 6.6162C94.2049 6.6162 96.0049 9.7842 96.0049 13.0002C96.0049 16.2162 94.2049 19.3842 89.1169 19.3842ZM86.3809 13.0002C86.3809 15.4002 87.1489 16.1682 89.1169 16.1682C91.0849 16.1682 91.8529 15.4002 91.8529 13.0002C91.8529 10.6002 91.0849 9.8322 89.1169 9.8322C87.1489 9.8322 86.3809 10.6002 86.3809 13.0002Z" fill="#FFEA2E"/>
<path d="M97.2233 15.1362H100.967C101.063 16.1202 101.879 16.9122 103.415 16.9122C104.759 16.9122 105.287 16.4802 105.287 15.7842C105.287 15.1842 105.071 14.6802 103.679 14.5122L101.135 14.2242C98.8073 13.9602 97.5593 12.7122 97.5593 10.6242C97.5593 7.7682 100.007 6.6162 103.223 6.6162C106.535 6.6162 108.839 7.7442 109.079 10.5522H105.335C105.215 9.6162 104.567 9.0642 103.247 9.0642C101.855 9.0642 101.327 9.5682 101.327 10.2402C101.327 10.7442 101.615 11.2002 102.743 11.3202L105.215 11.5602C108.047 11.8482 109.223 13.0002 109.223 15.3042C109.223 17.5842 107.807 19.3842 103.343 19.3842C98.9513 19.3842 97.3193 17.3442 97.2233 15.1362Z" fill="#FFEA2E"/>
<path d="M124.892 19.0002H120.02L116.9 14.7042L115.196 16.3602V19.0002H111.068V2.2002H115.196V12.4002C115.604 11.8002 116.06 11.2242 116.468 10.7202L119.78 7.0002H124.652V7.0962L119.516 12.1362L124.892 19.0002Z" fill="#FFEA2E"/>
<path d="M131.445 19.3842C126.357 19.3842 124.581 16.2402 124.581 13.0002C124.581 9.7842 126.357 6.6162 131.445 6.6162C136.533 6.6162 138.333 9.7842 138.333 13.0002C138.333 16.2162 136.533 19.3842 131.445 19.3842ZM128.709 13.0002C128.709 15.4002 129.477 16.1682 131.445 16.1682C133.413 16.1682 134.181 15.4002 134.181 13.0002C134.181 10.6002 133.413 9.8322 131.445 9.8322C129.477 9.8322 128.709 10.6002 128.709 13.0002Z" fill="#FFEA2E"/>
<path d="M148.508 6.6162C151.652 6.6162 153.02 8.5602 153.02 11.7042V19.0002H148.892V12.4002C148.892 10.8162 148.244 9.9522 146.804 9.9522C145.148 9.9522 144.188 11.0082 144.188 13.3602V19.0002H140.06V7.0002H144.188V9.2082C144.98 7.6482 146.372 6.6162 148.508 6.6162Z" fill="#FFEA2E"/>
<path d="M158.919 19.3122C156.519 19.3122 154.935 17.9442 154.935 15.8322C154.935 13.9122 155.727 12.6402 159.039 12.0882L161.751 11.6082C162.855 11.4162 163.143 11.1282 163.143 10.5042C163.143 9.7842 162.711 9.3522 161.343 9.3522C159.903 9.3522 159.207 9.9282 159.183 10.9842H155.175C155.295 8.4402 157.503 6.6162 161.295 6.6162C165.087 6.6162 166.959 8.1762 166.959 10.9122V15.6882C166.959 16.9602 167.031 18.0162 167.175 19.0002H163.623C163.503 18.3042 163.431 17.4882 163.431 16.5042C162.831 18.2562 161.343 19.3122 158.919 19.3122ZM160.479 16.6242C162.039 16.6242 163.143 15.5202 163.143 13.3602V12.9042C162.567 13.3362 162.015 13.4802 161.271 13.6722L160.575 13.8402C159.423 14.1282 158.991 14.5362 158.991 15.3522C158.991 16.1922 159.639 16.6242 160.479 16.6242Z" fill="#FFEA2E"/>
<path d="M175.624 8.1042L178.504 7.0002V10.1442L175.624 11.2482V19.0002H171.496V12.8562L168.616 13.9602V10.8162L171.496 9.7122V2.2002H175.624V8.1042Z" fill="#FFEA2E"/>
<path d="M186.403 16.6242C187.627 16.6242 188.371 16.0962 188.707 15.3762H192.715C192.307 17.4402 190.675 19.3842 186.307 19.3842C181.411 19.3842 179.683 16.2642 179.683 12.9762C179.683 9.4962 181.699 6.6162 186.307 6.6162C191.203 6.6162 192.763 9.7122 192.763 13.0482C192.763 13.4322 192.739 13.7922 192.691 14.0562H183.691C183.931 15.9762 184.867 16.6242 186.403 16.6242ZM186.355 9.3282C184.867 9.3282 184.003 9.9282 183.739 11.6562H188.851C188.707 10.1442 187.963 9.3282 186.355 9.3282Z" fill="#FFEA2E"/>
<path d="M73.528 43.3842C67.24 43.3842 64.96 39.3042 64.96 35.0322C64.96 30.8322 67.24 26.6322 73.528 26.6322C79.864 26.6322 82.12 30.8562 82.12 35.0322C82.12 39.2802 79.864 43.3842 73.528 43.3842ZM69.376 35.0322C69.376 38.1522 70.24 39.9522 73.528 39.9522C76.864 39.9522 77.704 38.1522 77.704 35.0322C77.704 31.8642 76.864 30.0882 73.528 30.0882C70.24 30.0882 69.376 31.8642 69.376 35.0322Z" fill="#962EFF"/>
<path d="M92.2311 30.6162C96.1671 30.6162 97.7271 33.5682 97.7271 37.0242C97.7271 40.3602 96.1671 43.3842 92.2311 43.3842C90.1911 43.3842 88.8231 42.6162 88.0071 41.3202V47.8002H83.8791V31.0002H88.0071V32.6322C88.8231 31.3602 90.1911 30.6162 92.2311 30.6162ZM90.8391 40.1682C92.8791 40.1682 93.5991 39.2322 93.5991 37.0002C93.5991 34.7682 92.8791 33.8322 90.8391 33.8322C88.7271 33.8322 88.0071 34.8642 88.0071 37.0002C88.0071 39.1362 88.7271 40.1682 90.8391 40.1682Z" fill="#962EFF"/>
<path d="M99.1279 37.0002C99.1279 33.7602 100.952 30.6162 105.92 30.6162C110.264 30.6162 112.376 33.0642 112.472 36.0642H108.416C108.296 34.6482 107.576 33.8322 105.968 33.8322C104.24 33.8322 103.256 34.6002 103.256 37.0002C103.256 39.4002 104.192 40.1682 105.896 40.1682C107.6 40.1682 108.32 39.2322 108.464 37.9122H112.52C112.424 40.7682 110.432 43.3842 105.968 43.3842C101 43.3842 99.1279 40.2402 99.1279 37.0002Z" fill="#962EFF"/>
<path d="M114.376 27.0402H118.648V29.5362H114.376V27.0402ZM113.704 47.8002H110.848V44.5362H114.448V31.0002H118.576V43.0962C118.576 46.1682 117.352 47.8002 113.704 47.8002Z" fill="#962EFF"/>
<path d="M127.153 40.6242C128.377 40.6242 129.121 40.0962 129.457 39.3762H133.465C133.057 41.4402 131.425 43.3842 127.057 43.3842C122.161 43.3842 120.433 40.2642 120.433 36.9762C120.433 33.4962 122.449 30.6162 127.057 30.6162C131.953 30.6162 133.513 33.7122 133.513 37.0482C133.513 37.4322 133.489 37.7922 133.441 38.0562H124.441C124.681 39.9762 125.617 40.6242 127.153 40.6242ZM127.105 33.3282C125.617 33.3282 124.753 33.9282 124.489 35.6562H129.601C129.457 34.1442 128.713 33.3282 127.105 33.3282Z" fill="#962EFF"/>
<path d="M152.622 33.2562V27.0402H156.846V43.0002H152.622V36.5442H145.95V43.0002H141.726V27.0402H145.95V33.2562H152.622Z" fill="#962EFF"/>
<path d="M165.593 43.3842C160.505 43.3842 158.729 40.2402 158.729 37.0002C158.729 33.7842 160.505 30.6162 165.593 30.6162C170.681 30.6162 172.481 33.7842 172.481 37.0002C172.481 40.2162 170.681 43.3842 165.593 43.3842ZM162.857 37.0002C162.857 39.4002 163.625 40.1682 165.593 40.1682C167.561 40.1682 168.329 39.4002 168.329 37.0002C168.329 34.6002 167.561 33.8322 165.593 33.8322C163.625 33.8322 162.857 34.6002 162.857 37.0002Z" fill="#962EFF"/>
<path d="M182.296 43.0002H180.112C176.44 43.0002 175.288 41.3682 175.288 38.2722V34.0962H173.176V32.1762L175.624 31.0962L177.328 28.0962H179.416V31.0002H182.68V34.0962H179.416V39.7362H182.296V43.0002Z" fill="#962EFF"/>
<path d="M190.27 40.6242C191.494 40.6242 192.238 40.0962 192.574 39.3762H196.582C196.174 41.4402 194.542 43.3842 190.174 43.3842C185.278 43.3842 183.55 40.2642 183.55 36.9762C183.55 33.4962 185.566 30.6162 190.174 30.6162C195.07 30.6162 196.63 33.7122 196.63 37.0482C196.63 37.4322 196.606 37.7922 196.558 38.0562H187.558C187.798 39.9762 188.734 40.6242 190.27 40.6242ZM190.222 33.3282C188.734 33.3282 187.87 33.9282 187.606 35.6562H192.718C192.574 34.1442 191.83 33.3282 190.222 33.3282Z" fill="#962EFF"/>
<path d="M202.407 43.0002H198.279V26.2002H202.407V43.0002Z" fill="#962EFF"/>
<path d="M211.086 43.3842C205.998 43.3842 204.222 40.2402 204.222 37.0002C204.222 33.7842 205.998 30.6162 211.086 30.6162C216.174 30.6162 217.974 33.7842 217.974 37.0002C217.974 40.2162 216.174 43.3842 211.086 43.3842ZM208.35 37.0002C208.35 39.4002 209.118 40.1682 211.086 40.1682C213.054 40.1682 213.822 39.4002 213.822 37.0002C213.822 34.6002 213.054 33.8322 211.086 33.8322C209.118 33.8322 208.35 34.6002 208.35 37.0002Z" fill="#962EFF"/>
<path d="M234.323 39.8802L236.243 31.0002H240.083L237.131 43.0002H231.419L229.307 35.1042L227.171 43.0002H221.435L218.507 31.0002H222.659L224.651 39.8562L227.315 31.0002H231.659L234.323 39.8802Z" fill="#962EFF"/>
<path d="M247.293 40.6242C248.517 40.6242 249.261 40.0962 249.597 39.3762H253.605C253.197 41.4402 251.565 43.3842 247.197 43.3842C242.301 43.3842 240.573 40.2642 240.573 36.9762C240.573 33.4962 242.589 30.6162 247.197 30.6162C252.093 30.6162 253.653 33.7122 253.653 37.0482C253.653 37.4322 253.629 37.7922 253.581 38.0562H244.581C244.821 39.9762 245.757 40.6242 247.293 40.6242ZM247.245 33.3282C245.757 33.3282 244.893 33.9282 244.629 35.6562H249.741C249.597 34.1442 248.853 33.3282 247.245 33.3282Z" fill="#962EFF"/>
</g>
<defs>
<clipPath id="clip0_122_111">
<rect width="253.653" height="48" fill="white"/>
</clipPath>
</defs>
</svg>
