<svg width="313" height="48" viewBox="0 0 313 48" fill="none" xmlns="http://www.w3.org/2000/svg">
<path fill-rule="evenodd" clip-rule="evenodd" d="M32.3322 1.03125L21.6379 5.60278V43.499H24.8938V35.5328L24.1403 35.6046C23.8321 35.6336 23.5586 35.4074 23.5295 35.0992C23.5005 34.7909 23.7267 34.5174 24.0349 34.4883L29.8298 33.9368C30.1381 33.9076 30.4115 34.1339 30.4407 34.4422C30.4698 34.7504 30.2435 35.0239 29.9353 35.0529L29.0764 35.1347V43.4989H43.0265V5.60278L32.3322 1.03125ZM25.8332 30.4268L23.8117 30.6202V26.7144L25.8332 26.4027V30.4268ZM25.8338 24.0822L23.8118 24.4621V20.5469L25.8338 20.0485V24.0822ZM25.8338 17.7345L23.8118 18.3008V14.3857L25.8338 13.7008V17.7345ZM25.8338 11.3835L23.8118 12.1333V8.47566L25.8345 7.60866L25.8338 11.3835ZM30.1584 30.0147L27.8806 30.2331V26.0826L30.1584 25.7307V30.0147ZM30.1584 23.2643L27.8806 23.6931V19.5458L30.1584 18.9837V23.2642V23.2643ZM30.1584 16.5173L27.8806 17.1562V13.0057L30.1584 12.2333V16.5173ZM30.1584 9.77034L27.8806 10.6194L27.8799 6.73228L30.1583 5.75475V9.77034H30.1584ZM35.5683 36.8438C35.5683 37.1545 35.3165 37.4063 35.0058 37.4063C34.6952 37.4063 34.4433 37.1545 34.4433 36.8438V5.94441C34.4433 5.63372 34.6952 5.38191 35.0058 5.38191C35.3165 5.38191 35.5683 5.63372 35.5683 5.94441V36.844V36.8438ZM38.2419 36.8438C38.2419 37.1545 37.9901 37.4063 37.6794 37.4063C37.3687 37.4063 37.1169 37.1545 37.1169 36.8438V7.08731C37.1169 6.77662 37.3688 6.52481 37.6794 6.52481C37.99 6.52481 38.2419 6.77672 38.2419 7.08731V36.844V36.8438ZM40.9155 36.8438C40.9155 37.1545 40.6637 37.4063 40.353 37.4063C40.0423 37.4063 39.7905 37.1545 39.7905 36.8438V8.23022C39.7905 7.91953 40.0423 7.66772 40.353 7.66772C40.6637 7.66772 40.9155 7.91953 40.9155 8.23022V36.844V36.8438ZM16.1099 12.0718L4.97369 16.8323V43.499H8.4505V37.3141L7.69703 37.3858C7.38878 37.4149 7.11531 37.1887 7.08625 36.8804C7.05719 36.5722 7.28341 36.2987 7.59166 36.2696L13.3865 35.7181C13.6948 35.689 13.9683 35.9153 13.9974 36.2235C14.0265 36.5318 13.8003 36.8052 13.492 36.8344L12.6332 36.9161V43.4991H20.513V13.954L16.1099 12.0718ZM8.99828 31.5599L7.35306 31.7852V28.6183L8.99828 28.2803V31.5599ZM8.99828 26.3979L7.35306 26.8026V23.6356L8.99828 23.1184V26.3979ZM8.99884 21.234L7.35316 21.8159V18.8581L8.99941 18.1647L8.99884 21.234ZM12.5759 31.0659L10.6811 31.327V27.9354L12.5759 27.5444V31.0659ZM12.5759 25.5145L10.6811 25.9813V22.5877L12.5759 21.9889V25.5145ZM12.5759 19.9611L10.6805 20.6357V17.4576L12.5759 16.6544V19.9611ZM1.08325 44.624H46.9169V46.9688H1.08325V44.624Z" fill="#FFEA2E"/>
<path d="M69.4 10.96C70.9733 10.96 72.48 11.24 73.92 11.8C75.3867 12.3333 76.6133 13.0533 77.6 13.96C78.6133 14.8667 79.2133 15.84 79.4 16.88C79.5333 17.5733 79.44 18.3467 79.12 19.2C78.8 20.0267 78.2933 20.76 77.6 21.4C76.9067 22.0133 76.0667 22.3467 75.08 22.4C74.7333 22.4 74.2933 22.36 73.76 22.28C73.2267 22.2 72.7067 22.04 72.2 21.8C71.72 21.56 71.3333 21.2133 71.04 20.76C71.44 20.5467 71.7067 20.32 71.84 20.08C71.9733 19.84 72.0133 19.6 71.96 19.36C71.8533 18.8267 71.5333 18.3867 71 18.04C70.4933 17.6933 69.8667 17.48 69.12 17.4C68.6933 17.3467 68.2 17.36 67.64 17.44C67.08 17.4933 66.56 17.68 66.08 18C65.6267 18.2933 65.3067 18.7867 65.12 19.48C65.0133 19.88 65.0267 20.32 65.16 20.8C65.32 21.2533 65.6933 21.6933 66.28 22.12C66.8667 22.52 67.76 22.8667 68.96 23.16C70.8 23.5867 72.5067 24.0533 74.08 24.56C75.68 25.0667 77.08 25.6933 78.28 26.44C79.48 27.1867 80.4 28.12 81.04 29.24C81.7067 30.3333 82.0133 31.7067 81.96 33.36C81.9333 34.4533 81.64 35.6 81.08 36.8C80.52 38 79.7067 39.12 78.64 40.16C77.5733 41.1733 76.2667 42 74.72 42.64C73.1733 43.28 71.4133 43.6 69.44 43.6C68.1867 43.6 66.8933 43.4933 65.56 43.28C64.2267 43.0667 62.96 42.7333 61.76 42.28C60.5867 41.8267 59.5467 41.2267 58.64 40.48C57.84 39.7867 57.2667 38.92 56.92 37.88C56.6 36.84 56.5333 35.8 56.72 34.76C56.9067 33.6933 57.3733 32.7867 58.12 32.04C58.8933 31.2933 59.96 30.88 61.32 30.8C61.0533 31.6 61.2 32.3867 61.76 33.16C62.3467 33.9067 63.2133 34.5467 64.36 35.08C65.5067 35.5867 66.76 35.8933 68.12 36C69.5333 36.1067 70.76 36.0533 71.8 35.84C72.8667 35.6267 73.4533 35.1867 73.56 34.52C73.6933 33.72 73.5333 33.08 73.08 32.6C72.6267 32.12 72 31.76 71.2 31.52C70.4 31.2533 69.5333 31.04 68.6 30.88C67.6667 30.6933 66.8 30.5067 66 30.32C64.9333 30.0267 63.8533 29.6533 62.76 29.2C61.6933 28.72 60.7067 28.12 59.8 27.4C58.92 26.68 58.2 25.8 57.64 24.76C57.08 23.72 56.7867 22.5067 56.76 21.12C56.7333 19.4933 57.0667 18.0533 57.76 16.8C58.4533 15.52 59.4 14.4533 60.6 13.6C61.8 12.72 63.16 12.0667 64.68 11.64C66.2267 11.1867 67.8 10.96 69.4 10.96ZM100.944 20.8C101.21 21.0667 101.41 21.56 101.544 22.28C101.704 22.9733 101.744 23.7467 101.664 24.6C101.61 25.4267 101.41 26.1867 101.064 26.88C100.744 27.5467 100.25 28 99.5838 28.24C98.5438 28.6133 97.7838 29.28 97.3038 30.24C96.8238 31.2 96.5438 32.4133 96.4638 33.88V37.28C96.5171 37.7067 96.6904 38.0533 96.9838 38.32C97.3038 38.5867 97.6104 38.7733 97.9038 38.88C98.2238 38.9867 98.3838 39.04 98.3838 39.04C98.3838 39.04 98.3304 39.2267 98.2238 39.6C98.1438 39.9733 97.9838 40.4133 97.7438 40.92C97.5038 41.4267 97.1571 41.92 96.7038 42.4C96.2504 42.8533 95.6638 43.1733 94.9438 43.36C94.5704 43.44 94.0638 43.4533 93.4238 43.4C92.8104 43.3733 92.1838 43.2533 91.5438 43.04C90.9038 42.8267 90.3704 42.5333 89.9438 42.16C89.7038 41.9467 89.5038 41.72 89.3438 41.48C89.1838 41.24 89.0638 40.88 88.9838 40.4C88.9304 39.92 88.9038 39.24 88.9038 38.36V34.08C88.8771 32.5333 88.5438 31.2533 87.9038 30.24C87.2638 29.2 86.4238 28.3067 85.3838 27.56C84.9038 27.2133 84.5571 26.6533 84.3438 25.88C84.1571 25.08 84.0371 24.24 83.9838 23.36C83.9304 22.48 83.9171 21.7333 83.9438 21.12C84.0771 21.1467 84.4371 21.2 85.0238 21.28C85.6104 21.36 86.1171 21.4 86.5438 21.4C87.3971 21.3733 87.9838 21.04 88.3038 20.4C88.6238 19.76 88.7838 18.96 88.7838 18L88.7438 14.44C88.9838 14.4133 89.3838 14.3867 89.9438 14.36C90.5304 14.3067 91.1704 14.3067 91.8638 14.36C92.5571 14.4133 93.2238 14.5467 93.8638 14.76C94.5304 14.9467 95.0904 15.2533 95.5438 15.68C96.0238 16.1067 96.3038 16.68 96.3838 17.4C96.3838 17.48 96.3838 17.5867 96.3838 17.72C96.4104 17.8267 96.4238 17.96 96.4238 18.12H96.4638C96.4638 18.4667 96.5038 18.88 96.5838 19.36C96.6904 19.84 96.8371 20.24 97.0238 20.56C97.2104 20.8267 97.5038 21.0267 97.9038 21.16C98.3038 21.2667 98.6904 21.3333 99.0638 21.36C99.4638 21.36 99.7571 21.3333 99.9438 21.28C100.237 21.2 100.45 21.1333 100.584 21.08C100.717 21 100.837 20.9067 100.944 20.8ZM125.789 35.76C125.816 36.3467 125.856 37.0667 125.909 37.92C125.989 38.7733 126.163 39.6 126.429 40.4C126.696 41.2 127.123 41.84 127.709 42.32C127.043 42.7733 126.363 43.0933 125.669 43.28C124.976 43.4933 124.296 43.5467 123.629 43.44C123.443 43.3867 123.243 43.32 123.029 43.24C122.816 43.1867 122.523 43.1067 122.149 43C121.536 42.8133 120.816 42.7733 119.989 42.88C119.163 42.9867 118.296 43.12 117.389 43.28C116.509 43.4667 115.643 43.56 114.789 43.56C113.403 43.56 112.016 43.32 110.629 42.84C109.243 42.3333 107.989 41.56 106.869 40.52C105.749 39.48 104.896 38.16 104.309 36.56C103.723 34.96 103.549 33.04 103.789 30.8C103.949 29.2533 104.389 27.84 105.109 26.56C105.829 25.2533 106.709 24.1333 107.749 23.2C108.816 22.24 109.936 21.5067 111.109 21C112.309 20.4667 113.469 20.2133 114.589 20.24C115.443 20.2667 116.096 20.2933 116.549 20.32C117.029 20.3467 117.643 20.4133 118.389 20.52C118.843 20.5733 119.416 20.5067 120.109 20.32C120.803 20.1333 121.496 19.9333 122.189 19.72C122.909 19.48 123.523 19.36 124.029 19.36C124.803 19.3333 125.349 19.36 125.669 19.44C125.989 19.4933 126.256 19.5467 126.469 19.6C126.309 20.08 126.176 20.8 126.069 21.76C125.963 22.72 125.883 23.8133 125.829 25.04C125.803 26.24 125.776 27.4933 125.749 28.8C125.723 30.1067 125.709 31.36 125.709 32.56C125.736 33.76 125.763 34.8267 125.789 35.76ZM110.749 32.08C110.803 33.4133 111.043 34.4533 111.469 35.2C111.923 35.92 112.456 36.4267 113.069 36.72C113.709 37.0133 114.323 37.16 114.909 37.16C116.083 37.1867 116.949 36.7333 117.509 35.8C118.069 34.8667 118.336 33.5733 118.309 31.92C118.309 31.4667 118.256 30.9333 118.149 30.32C118.069 29.7067 117.909 29.1067 117.669 28.52C117.456 27.9333 117.149 27.44 116.749 27.04C116.376 26.64 115.883 26.44 115.269 26.44C114.043 26.44 112.963 26.8933 112.029 27.8C111.123 28.7067 110.696 30.1333 110.749 32.08ZM143.737 19.84C144.27 19.7067 144.764 19.84 145.217 20.24C145.67 20.64 146.07 21.1867 146.417 21.88C146.79 22.5467 147.097 23.24 147.337 23.96C147.577 24.6533 147.764 25.24 147.897 25.72C148.03 26.2 148.097 26.44 148.097 26.44C148.097 26.44 147.777 26.5067 147.137 26.64C146.524 26.7467 145.75 26.9733 144.817 27.32C143.91 27.64 143.004 28.1333 142.097 28.8C141.564 29.2 141.057 29.68 140.577 30.24C140.097 30.8 139.684 31.52 139.337 32.4C138.99 33.2533 138.737 34.3867 138.577 35.8C138.497 36.52 138.484 37.2667 138.537 38.04C138.59 38.8133 138.617 39.4667 138.617 40C138.644 40.48 138.71 40.8267 138.817 41.04C138.95 41.2267 139.057 41.3867 139.137 41.52C138.79 41.84 138.15 42.2 137.217 42.6C136.31 42.9733 135.31 43.16 134.217 43.16C133.15 43.16 132.364 42.8133 131.857 42.12C131.35 41.4267 131.097 40.4667 131.097 39.24C131.097 38.9467 131.084 38.3067 131.057 37.32C131.057 36.3067 131.044 35.0933 131.017 33.68C131.017 32.2667 131.004 30.8 130.977 29.28C130.977 27.76 130.964 26.3467 130.937 25.04C130.937 23.7067 130.924 22.6267 130.897 21.8C130.897 20.9733 130.897 20.56 130.897 20.56C131.164 20.5067 131.617 20.4667 132.257 20.44C132.924 20.4133 133.644 20.44 134.417 20.52C135.19 20.6 135.91 20.7867 136.577 21.08C136.897 21.2133 137.324 21.3467 137.857 21.48C138.417 21.5867 138.95 21.64 139.457 21.64C139.99 21.64 140.377 21.56 140.617 21.4C141.124 21.0267 141.63 20.7067 142.137 20.44C142.67 20.1733 143.204 19.9733 143.737 19.84ZM191.423 19C191.103 19.9867 190.61 20.7067 189.943 21.16C189.276 21.6133 188.583 21.8 187.863 21.72C187.143 21.6133 186.53 21.2533 186.023 20.64C186.476 20.2933 186.61 19.92 186.423 19.52C186.263 19.0933 185.85 18.7467 185.183 18.48C184.516 18.1867 183.663 18.08 182.623 18.16C181.556 18.2133 180.476 18.56 179.383 19.2C178.316 19.84 177.423 20.76 176.703 21.96C175.983 23.16 175.583 24.6533 175.503 26.44C175.423 28.28 175.61 29.7733 176.063 30.92C176.516 32.0667 177.076 32.9467 177.743 33.56C178.436 34.1467 179.13 34.5733 179.823 34.84C180.516 35.08 181.076 35.24 181.503 35.32C182.063 35.4267 182.703 35.5067 183.423 35.56C184.17 35.5867 184.916 35.5333 185.663 35.4C186.41 35.2667 187.05 35.04 187.583 34.72C188.063 34.4267 188.663 34.04 189.383 33.56C190.103 33.0533 190.796 32.4933 191.463 31.88C192.13 31.2667 192.623 30.64 192.943 30C193.85 30.6133 194.41 31.48 194.623 32.6C194.863 33.72 194.77 34.92 194.343 36.2C193.916 37.48 193.17 38.6933 192.103 39.84C191.063 40.96 189.703 41.88 188.023 42.6C186.343 43.2933 184.356 43.6133 182.063 43.56C180.996 43.5333 179.77 43.3333 178.383 42.96C177.023 42.5867 175.65 42 174.263 41.2C172.876 40.3733 171.61 39.2933 170.463 37.96C169.343 36.6 168.49 34.92 167.903 32.92C167.316 30.92 167.156 28.56 167.423 25.84C167.663 23.2533 168.303 21.0267 169.343 19.16C170.41 17.2933 171.703 15.7733 173.223 14.6C174.77 13.4 176.396 12.5067 178.103 11.92C179.836 11.3067 181.49 10.9867 183.063 10.96C184.636 10.9067 185.996 11.1467 187.143 11.68C188.316 12.2133 189.263 12.9067 189.983 13.76C190.703 14.5867 191.183 15.48 191.423 16.44C191.69 17.3733 191.69 18.2267 191.423 19ZM220.008 35.76C220.035 36.3467 220.075 37.0667 220.128 37.92C220.208 38.7733 220.381 39.6 220.648 40.4C220.915 41.2 221.341 41.84 221.928 42.32C221.261 42.7733 220.581 43.0933 219.888 43.28C219.195 43.4933 218.515 43.5467 217.848 43.44C217.661 43.3867 217.461 43.32 217.248 43.24C217.035 43.1867 216.741 43.1067 216.368 43C215.755 42.8133 215.035 42.7733 214.208 42.88C213.381 42.9867 212.515 43.12 211.608 43.28C210.728 43.4667 209.861 43.56 209.008 43.56C207.621 43.56 206.235 43.32 204.848 42.84C203.461 42.3333 202.208 41.56 201.088 40.52C199.968 39.48 199.115 38.16 198.528 36.56C197.941 34.96 197.768 33.04 198.008 30.8C198.168 29.2533 198.608 27.84 199.328 26.56C200.048 25.2533 200.928 24.1333 201.968 23.2C203.035 22.24 204.155 21.5067 205.328 21C206.528 20.4667 207.688 20.2133 208.808 20.24C209.661 20.2667 210.315 20.2933 210.768 20.32C211.248 20.3467 211.861 20.4133 212.608 20.52C213.061 20.5733 213.635 20.5067 214.328 20.32C215.021 20.1333 215.715 19.9333 216.408 19.72C217.128 19.48 217.741 19.36 218.248 19.36C219.021 19.3333 219.568 19.36 219.888 19.44C220.208 19.4933 220.475 19.5467 220.688 19.6C220.528 20.08 220.395 20.8 220.288 21.76C220.181 22.72 220.101 23.8133 220.048 25.04C220.021 26.24 219.995 27.4933 219.968 28.8C219.941 30.1067 219.928 31.36 219.928 32.56C219.955 33.76 219.981 34.8267 220.008 35.76ZM204.968 32.08C205.021 33.4133 205.261 34.4533 205.688 35.2C206.141 35.92 206.675 36.4267 207.288 36.72C207.928 37.0133 208.541 37.16 209.128 37.16C210.301 37.1867 211.168 36.7333 211.728 35.8C212.288 34.8667 212.555 33.5733 212.528 31.92C212.528 31.4667 212.475 30.9333 212.368 30.32C212.288 29.7067 212.128 29.1067 211.888 28.52C211.675 27.9333 211.368 27.44 210.968 27.04C210.595 26.64 210.101 26.44 209.488 26.44C208.261 26.44 207.181 26.8933 206.248 27.8C205.341 28.7067 204.915 30.1333 204.968 32.08ZM235.556 19.76C237.529 19.76 239.209 20.04 240.596 20.6C242.009 21.16 243.089 21.8533 243.836 22.68C244.582 23.5067 244.942 24.32 244.916 25.12C244.916 25.5467 244.729 26.0267 244.356 26.56C243.982 27.0933 243.489 27.5467 242.876 27.92C242.289 28.2667 241.636 28.4 240.916 28.32C241.102 27.84 240.982 27.3867 240.556 26.96C240.129 26.5333 239.516 26.1867 238.716 25.92C237.916 25.6267 237.049 25.4667 236.116 25.44C235.049 25.3867 234.329 25.5067 233.956 25.8C233.582 26.0667 233.369 26.36 233.316 26.68C233.236 27.0267 233.396 27.3333 233.796 27.6C234.196 27.84 234.716 28.0667 235.356 28.28C236.022 28.4667 236.716 28.64 237.436 28.8C238.182 28.9333 238.862 29.0533 239.476 29.16C240.116 29.2667 240.609 29.3733 240.956 29.48C242.556 29.96 243.729 30.5867 244.476 31.36C245.222 32.1067 245.702 32.9067 245.916 33.76C246.156 34.6133 246.249 35.4533 246.196 36.28C246.142 37.6133 245.796 38.7333 245.156 39.64C244.542 40.52 243.769 41.2267 242.836 41.76C241.929 42.2933 240.969 42.6933 239.956 42.96C238.969 43.2 238.036 43.36 237.156 43.44C236.302 43.52 235.649 43.56 235.196 43.56C233.809 43.5333 232.502 43.3867 231.276 43.12C230.076 42.88 229.036 42.56 228.156 42.16C227.302 41.76 226.689 41.3333 226.316 40.88C226.049 40.56 225.796 40.1067 225.556 39.52C225.316 38.9333 225.169 38.3067 225.116 37.64C225.089 36.9467 225.236 36.2933 225.556 35.68C225.876 35.04 226.462 34.52 227.316 34.12C227.476 34.6533 227.902 35.1333 228.596 35.56C229.316 35.9867 230.169 36.3333 231.156 36.6C232.169 36.8667 233.169 37.0533 234.156 37.16C235.116 37.24 236.022 37.2267 236.876 37.12C237.729 37.0133 238.196 36.7067 238.276 36.2C238.329 35.9333 238.196 35.6667 237.876 35.4C237.556 35.1333 236.969 34.9067 236.116 34.72C235.209 34.5067 234.409 34.3467 233.716 34.24C233.049 34.1067 232.382 33.96 231.716 33.8C230.462 33.48 229.369 32.9733 228.436 32.28C227.502 31.5867 226.796 30.76 226.316 29.8C225.862 28.8133 225.702 27.7733 225.836 26.68C226.049 25.1067 226.622 23.8133 227.556 22.8C228.516 21.7867 229.702 21.0267 231.116 20.52C232.529 20.0133 234.009 19.76 235.556 19.76ZM253.893 19.2C252.986 19.2267 252.173 18.9733 251.453 18.44C250.759 17.9067 250.226 17.2533 249.853 16.48C249.506 15.68 249.373 14.92 249.453 14.2C249.586 13.1067 250.079 12.3333 250.933 11.88C251.786 11.4267 252.679 11.1867 253.613 11.16C254.946 11.1067 255.986 11.4533 256.733 12.2C257.479 12.9467 257.853 13.8 257.853 14.76C257.853 15.4 257.706 16.0533 257.413 16.72C257.146 17.3867 256.719 17.96 256.133 18.44C255.546 18.8933 254.799 19.1467 253.893 19.2ZM258.133 38.96C258.159 39.44 258.306 39.8533 258.573 40.2C258.866 40.52 259.213 40.8267 259.613 41.12C259.426 41.36 259.186 41.6133 258.893 41.88C258.599 42.1467 258.159 42.4 257.573 42.64C257.013 42.8533 256.199 43.0267 255.133 43.16C254.786 43.1867 254.346 43.1467 253.813 43.04C253.279 42.96 252.746 42.7067 252.213 42.28C251.706 41.8267 251.293 41.12 250.973 40.16C250.653 39.1733 250.519 37.8267 250.573 36.12C250.599 35.8267 250.599 35.2533 250.573 34.4C250.573 33.5467 250.559 32.5333 250.533 31.36C250.533 30.1867 250.519 28.9733 250.493 27.72C250.493 26.4667 250.479 25.3067 250.452 24.24C250.452 23.1467 250.439 22.2667 250.413 21.6C250.413 20.9067 250.413 20.56 250.413 20.56C250.653 20.5333 251.053 20.5067 251.613 20.48C252.199 20.4267 252.839 20.4267 253.533 20.48C254.226 20.5333 254.893 20.6667 255.533 20.88C256.199 21.0667 256.759 21.3733 257.213 21.8C257.693 22.2267 257.973 22.8 258.053 23.52C258.186 24.5333 258.239 25.8933 258.213 27.6C258.186 29.28 258.146 31.12 258.092 33.12C258.039 35.0933 258.053 37.04 258.133 38.96ZM284.611 37.92C284.638 39.0933 284.811 39.92 285.131 40.4C285.478 40.8533 285.651 41.08 285.651 41.08C285.651 41.08 285.411 41.2533 284.931 41.6C284.478 41.92 283.864 42.2533 283.091 42.6C282.318 42.9467 281.451 43.12 280.491 43.12C279.078 43.12 278.158 42.7333 277.731 41.96C277.304 41.1867 277.078 40.1867 277.051 38.96C277.051 38.7467 277.064 38.28 277.091 37.56C277.118 36.84 277.131 36.0267 277.131 35.12C277.158 34.1867 277.158 33.3333 277.131 32.56C277.104 31.76 277.051 31.2 276.971 30.88C276.678 29.8133 276.104 29.3467 275.251 29.48C274.584 29.56 273.958 29.9467 273.371 30.64C272.784 31.3067 272.304 32.1067 271.931 33.04C271.558 33.9733 271.371 34.8533 271.371 35.68C271.371 36.1067 271.344 36.5333 271.291 36.96C271.264 37.36 271.238 37.7333 271.211 38.08C271.184 38.32 271.211 38.6133 271.291 38.96C271.398 39.3067 271.584 39.5867 271.851 39.8C271.664 40.12 271.291 40.5333 270.731 41.04C270.198 41.5467 269.611 42.0133 268.971 42.44C268.358 42.84 267.824 43.0667 267.371 43.12C266.944 43.1467 266.438 43.0133 265.851 42.72C265.291 42.4267 264.798 41.9867 264.371 41.4C263.971 40.8133 263.758 40.1067 263.731 39.28C263.731 39.0667 263.731 38.5733 263.731 37.8C263.758 37.0267 263.771 36.0933 263.771 35C263.798 33.9067 263.811 32.7467 263.811 31.52C263.838 30.2933 263.851 29.1067 263.851 27.96C263.851 26.8133 263.851 25.8267 263.851 25C263.851 24.28 263.758 23.5867 263.571 22.92C263.411 22.2267 263.238 21.6667 263.051 21.24C262.891 20.7867 262.811 20.56 262.811 20.56C263.051 20.5067 263.464 20.4667 264.051 20.44C264.664 20.4133 265.344 20.4267 266.091 20.48C266.838 20.5333 267.571 20.6533 268.291 20.84C269.038 21.0267 269.664 21.32 270.171 21.72C270.704 22.12 271.238 22.3733 271.771 22.48C272.331 22.56 272.771 22.5067 273.091 22.32C274.024 21.7067 274.971 21.1733 275.931 20.72C276.891 20.2667 277.824 19.9867 278.731 19.88C279.184 19.8267 279.718 19.8533 280.331 19.96C280.944 20.04 281.544 20.24 282.131 20.56C282.744 20.88 283.264 21.3333 283.691 21.92C284.144 22.5067 284.424 23.2533 284.531 24.16C284.718 25.7067 284.771 27.6 284.691 29.84C284.611 32.0533 284.584 34.7467 284.611 37.92ZM311.026 30.8C311.266 33.04 311.092 34.96 310.506 36.56C309.919 38.16 309.052 39.48 307.906 40.52C306.786 41.56 305.519 42.3333 304.106 42.84C302.719 43.32 301.332 43.56 299.946 43.56C298.586 43.56 297.199 43.32 295.786 42.84C294.399 42.3333 293.146 41.56 292.026 40.52C290.932 39.48 290.079 38.16 289.466 36.56C288.879 34.96 288.706 33.04 288.946 30.8C289.186 28.7467 289.799 26.9467 290.786 25.4C291.799 23.8533 293.079 22.64 294.626 21.76C296.199 20.8533 297.919 20.3467 299.786 20.24C299.892 20.2133 299.999 20.1333 300.106 20C300.239 19.84 300.452 19.7067 300.746 19.6C301.066 19.4667 301.546 19.4267 302.186 19.48C303.706 19.9067 305.092 20.64 306.346 21.68C307.599 22.72 308.639 24.0133 309.466 25.56C310.319 27.1067 310.839 28.8533 311.026 30.8ZM299.586 37.16C300.439 37.16 301.172 36.96 301.786 36.56C302.399 36.16 302.892 35.6533 303.266 35.04C303.639 34.4 303.906 33.7333 304.066 33.04C304.252 32.3467 304.346 31.72 304.346 31.16C304.346 30.0133 304.159 29.12 303.786 28.48C303.412 27.84 302.559 27.2667 301.226 26.76C300.852 26.6 300.599 26.3867 300.466 26.12C300.332 25.8533 300.132 25.7067 299.866 25.68C298.986 25.5733 298.239 25.8133 297.626 26.4C297.012 26.9867 296.546 27.7733 296.226 28.76C295.906 29.7467 295.746 30.8133 295.746 31.96C295.746 33.1067 295.959 34.0667 296.386 34.84C296.839 35.6133 297.359 36.2 297.946 36.6C298.559 36.9733 299.106 37.16 299.586 37.16Z" fill="#FFEA2E"/>
</svg>
